<svg t="1750570955594" class="icon" viewBox="0 0 1024 1024" version="1.1" xmlns="http://www.w3.org/2000/svg" p-id="21559" width="200" height="200"><path d="M511.884387 294.978065v288.63587l249.971613-144.317935-0.016516-288.635871z" fill="#C3D2FB" p-id="21560"></path><path d="M261.912774 150.660129l249.971613 144.317936v288.652387l-249.971613-144.334452z" fill="#3D4265" p-id="21561"></path><path d="M511.884387 294.978065l249.971613-144.317936L511.884387 6.342194 261.912774 150.660129z" fill="#597EF7" p-id="21562"></path><path d="M261.879742 728.030968v288.635871l249.971613-144.317936V583.696516z" fill="#C3D2FB" p-id="21563"></path><path d="M11.908129 583.696516l249.971613 144.334452v288.635871L11.908129 872.348903z" fill="#3D4265" p-id="21564"></path><path d="M261.879742 728.030968l249.971613-144.334452-249.971613-144.317935L11.908129 583.696516z" fill="#597EF7" p-id="21565"></path><path d="M761.723871 728.030968v288.635871l249.955097-144.317936V583.696516z" fill="#C3D2FB" p-id="21566"></path><path d="M511.752258 583.696516l249.955097 144.334452v288.635871l-249.955097-144.317936z" fill="#3D4265" p-id="21567"></path><path d="M761.723871 728.030968l249.955097-144.334452-249.971613-144.317935-249.955097 144.317935z" fill="#597EF7" p-id="21568"></path></svg>